# xmcd CD database file
#
# Track frame offsets:
#	150
#	61503
#	78404
#	105915
#	132624
#	186178
#	197476
#	233383
#	261564
#
# Disc length: 3714 seconds
#
# Revision: 0
# Processed by: cddbd v1.5.2PL0 Copyright (c) Steve Scherf et al.
# Submitted via: CDex 1.70beta2
#
DISCID=6e0e8009
DTITLE=Brad Dutz - Nine Gardeners Named Ned
DYEAR=2005
DGENRE=Jazz
TTITLE0=Look At The Pretty Weeds...They're Dead
TTITLE1=Rotted Vegetables...Too Late To Pick
TTITLE2=Rotted Fruit...Infested With Insects
TTITLE3=Distribute Fertilizer...Evenly
TTITLE4=I Like Brown Leaves Especially When They're Torn
TTITLE5=Leaf Blowers Are Stinky...And Loud
TTITLE6=Norbert Rakes Bark...And Mulch
TTITLE7=Wicked Late For Nite Blooming...But Not Dusk
TTITLE8=Plant The Bulbs...Frequently
EXTD=YEAR: 2005
EXTT0=
EXTT1=
EXTT2=
EXTT3=
EXTT4=
EXTT5=
EXTT6=
EXTT7=
EXTT8=
PLAYORDER=
